<?xml version="1.0" encoding="UTF-8"?>
<svg version="1.1" xmlns="http://www.w3.org/2000/svg" width="225" height="225">
<path d="M0 0 C74.25 0 148.5 0 225 0 C225 74.25 225 148.5 225 225 C150.75 225 76.5 225 0 225 C0 150.75 0 76.5 0 0 Z " fill="#FBFBFB" transform="translate(0,0)"/>
<path d="M0 0 C1.0725 0.00515625 2.145 0.0103125 3.25 0.015625 C4.85875 0.00789063 4.85875 0.00789063 6.5 0 C9.25 0.265625 9.25 0.265625 11.25 2.265625 C11.46193558 4.88326495 11.5539819 7.39247205 11.55078125 10.01171875 C11.55506638 10.77863541 11.5593515 11.54555206 11.56376648 12.33570862 C11.56951323 13.95890312 11.57000749 15.58212338 11.56567383 17.20532227 C11.5625166 19.69006294 11.58595754 22.17361002 11.61132812 24.65820312 C11.61360136 26.2343735 11.6143045 27.81054707 11.61328125 29.38671875 C11.622491 30.13054306 11.63170074 30.87436737 11.64118958 31.64073181 C11.59520053 36.76507183 11.59520053 36.76507183 9.89160156 39.23535156 C7.47207954 40.75384992 5.51555973 40.62707943 2.6875 40.578125 C1.71683594 40.57425781 0.74617187 40.57039063 -0.25390625 40.56640625 C-2.75 40.265625 -2.75 40.265625 -4.75 38.265625 C-4.94973733 35.56427177 -5.02981573 32.96765289 -5.015625 30.265625 C-5.01753845 29.47414063 -5.0194519 28.68265625 -5.02142334 27.8671875 C-5.02278518 26.1927051 -5.01908882 24.51821215 -5.01074219 22.84375 C-5.0000424 20.27580119 -5.01063725 17.70855197 -5.0234375 15.140625 C-5.0221159 13.51562345 -5.01955351 11.89062234 -5.015625 10.265625 C-5.01967346 9.49476562 -5.02372192 8.72390625 -5.02789307 7.9296875 C-4.96212218 0.47929589 -4.96212218 0.47929589 0 0 Z " fill="#DDAA22" transform="translate(166.75,82.734375)"/>
<path d="M0 0 C1.65322266 0.01740234 1.65322266 0.01740234 3.33984375 0.03515625 C4.99693359 0.04869141 4.99693359 0.04869141 6.6875 0.0625 C7.54214844 0.07410156 8.39679688 0.08570312 9.27734375 0.09765625 C11.66511181 26.84891413 11.66511181 26.84891413 11.27734375 40.09765625 C9.29734375 40.09765625 7.31734375 40.09765625 5.27734375 40.09765625 C5.27734375 36.46765625 5.27734375 32.83765625 5.27734375 29.09765625 C3.95734375 29.09765625 2.63734375 29.09765625 1.27734375 29.09765625 C0.94734375 32.72765625 0.61734375 36.35765625 0.27734375 40.09765625 C-1.70265625 40.09765625 -3.68265625 40.09765625 -5.72265625 40.09765625 C-5.26243261 29.49179514 -4.79605961 18.88558879 -4.22265625 8.28515625 C-4.1872876 7.5691626 -4.15191895 6.85316895 -4.11547852 6.11547852 C-3.77763058 0.13549608 -3.77763058 0.13549608 0 0 Z " fill="#106262" transform="translate(131.72265625,83.90234375)"/>
<path d="M0 0 C4.29 0 8.58 0 13 0 C15.93146333 2.93146333 15.29161443 5.48440746 15.32226562 9.49414062 C15.31904297 10.46544922 15.31582031 11.43675781 15.3125 12.4375 C15.32861328 13.40494141 15.34472656 14.37238281 15.36132812 15.36914062 C15.36229492 16.76229492 15.36229492 16.76229492 15.36328125 18.18359375 C15.36775269 19.46061157 15.36775269 19.46061157 15.37231445 20.76342773 C14.91653563 23.50138825 14.21024455 24.36267453 12 26 C8.8125 26.6875 8.8125 26.6875 6 27 C6.01160156 27.92683594 6.02320312 28.85367188 6.03515625 29.80859375 C6.04417969 31.00613281 6.05320312 32.20367187 6.0625 33.4375 C6.07410156 34.63246094 6.08570312 35.82742187 6.09765625 37.05859375 C6 40 6 40 5 41 C3.35 41 1.7 41 0 41 C0 27.47 0 13.94 0 0 Z " fill="#0F6262" transform="translate(98,85)"/>
<path d="M0 0 C1.98 0 3.96 0 6 0 C6 5.28 6 10.56 6 16 C7.65 16 9.3 16 11 16 C11 10.72 11 5.44 11 0 C12.65 0 14.3 0 16 0 C16 12.87 16 25.74 16 39 C14.35 39 12.7 39 11 39 C11 33.72 11 28.44 11 23 C9.35 23 7.7 23 6 23 C6 28.61 6 34.22 6 40 C4.02 40 2.04 40 0 40 C0 26.8 0 13.6 0 0 Z " fill="#075C5D" transform="translate(65,87)"/>
<path d="M0 0 C0.9796875 0.00515625 1.959375 0.0103125 2.96875 0.015625 C3.9484375 0.01046875 4.928125 0.0053125 5.9375 0 C8.46875 0.265625 8.46875 0.265625 10.46875 2.265625 C10.6640625 5.0859375 10.6640625 5.0859375 10.59375 8.390625 C10.57570312 9.48632812 10.55765625 10.58203125 10.5390625 11.7109375 C10.51585937 12.55398437 10.49265625 13.39703125 10.46875 14.265625 C8.48875 14.265625 6.50875 14.265625 4.46875 14.265625 C4.46875 11.955625 4.46875 9.645625 4.46875 7.265625 C3.47875 7.265625 2.48875 7.265625 1.46875 7.265625 C1.46875 16.505625 1.46875 25.745625 1.46875 35.265625 C2.45875 35.265625 3.44875 35.265625 4.46875 35.265625 C4.46875 32.625625 4.46875 29.985625 4.46875 27.265625 C6.44875 27.265625 8.42875 27.265625 10.46875 27.265625 C10.52264087 29.22366007 10.56149217 31.18211409 10.59375 33.140625 C10.61695313 34.23117188 10.64015625 35.32171875 10.6640625 36.4453125 C10.46875 39.265625 10.46875 39.265625 8.46875 41.265625 C5.9375 41.53125 5.9375 41.53125 2.96875 41.515625 C1.9890625 41.52078125 1.009375 41.5259375 0 41.53125 C-2.53125 41.265625 -2.53125 41.265625 -4.53125 39.265625 C-4.73107025 36.49227073 -4.811042 33.82092857 -4.796875 31.046875 C-4.79878845 30.23319458 -4.8007019 29.41951416 -4.80267334 28.58117676 C-4.80403527 26.859616 -4.80033828 25.13804497 -4.79199219 23.41650391 C-4.78129258 20.7761333 -4.791887 18.13644311 -4.8046875 15.49609375 C-4.80336591 13.82551933 -4.80080352 12.15494533 -4.796875 10.484375 C-4.80092346 9.69164185 -4.80497192 8.89890869 -4.80914307 8.08215332 C-4.74401567 0.4978288 -4.74401567 0.4978288 0 0 Z " fill="#DDAA20" transform="translate(149.53125,82.734375)"/>
<path d="M0 0 C0 13.2 0 26.4 0 40 C-1.32 39.67 -2.64 39.34 -4 39 C-5.32229189 36.35541621 -5.09677194 34.32238699 -5.0625 31.375 C-5.05347656 30.37210938 -5.04445313 29.36921875 -5.03515625 28.3359375 C-5.02355469 27.56507812 -5.01195313 26.79421875 -5 26 C-8.06290797 26.30858158 -11.12523952 26.62256293 -14.1875 26.9375 C-15.05181641 27.02451172 -15.91613281 27.11152344 -16.80664062 27.20117188 C-17.64775391 27.28818359 -18.48886719 27.37519531 -19.35546875 27.46484375 C-20.51018677 27.58267212 -20.51018677 27.58267212 -21.68823242 27.70288086 C-24.14334855 28.01842382 -26.57275826 28.51455165 -29 29 C-29 25.37 -29 21.74 -29 18 C-25.5917677 17.14794193 -23.62484016 16.92548999 -20.234375 17.12109375 C-19.34492188 17.16943359 -18.45546875 17.21777344 -17.5390625 17.26757812 C-16.61867188 17.32365234 -15.69828125 17.37972656 -14.75 17.4375 C-13.81414063 17.48970703 -12.87828125 17.54191406 -11.9140625 17.59570312 C-9.60901113 17.72506825 -7.30442711 17.86002034 -5 18 C-5.05220703 16.42798828 -5.05220703 16.42798828 -5.10546875 14.82421875 C-5.13360937 13.44532853 -5.16090924 12.06642098 -5.1875 10.6875 C-5.21263672 9.99720703 -5.23777344 9.30691406 -5.26367188 8.59570312 C-5.33777767 3.4824036 -5.33777767 3.4824036 -3.61328125 1.01953125 C-2 0 -2 0 0 0 Z " fill="#DDAB28" transform="translate(46,88)"/>
<path d="M0 0 C1.65322266 0.01740234 1.65322266 0.01740234 3.33984375 0.03515625 C4.99693359 0.04869141 4.99693359 0.04869141 6.6875 0.0625 C7.54214844 0.07410156 8.39679688 0.08570312 9.27734375 0.09765625 C9.27734375 2.07765625 9.27734375 4.05765625 9.27734375 6.09765625 C6.96734375 6.09765625 4.65734375 6.09765625 2.27734375 6.09765625 C2.27734375 9.39765625 2.27734375 12.69765625 2.27734375 16.09765625 C4.25734375 16.09765625 6.23734375 16.09765625 8.27734375 16.09765625 C8.27734375 18.07765625 8.27734375 20.05765625 8.27734375 22.09765625 C6.29734375 22.09765625 4.31734375 22.09765625 2.27734375 22.09765625 C2.27734375 26.05765625 2.27734375 30.01765625 2.27734375 34.09765625 C4.58734375 34.09765625 6.89734375 34.09765625 9.27734375 34.09765625 C9.27734375 36.07765625 9.27734375 38.05765625 9.27734375 40.09765625 C4.98734375 40.09765625 0.69734375 40.09765625 -3.72265625 40.09765625 C-3.747304 34.56177092 -3.76549121 29.02591725 -3.77758789 23.48999023 C-3.78262869 21.60521895 -3.78946123 19.7204516 -3.7980957 17.83569336 C-3.81017242 15.13263989 -3.81588693 12.42963794 -3.8203125 9.7265625 C-3.82547379 8.87864639 -3.83063507 8.03073029 -3.83595276 7.15711975 C-3.8361482 5.13694557 -3.78471836 3.11687691 -3.72265625 1.09765625 C-2.72265625 0.09765625 -2.72265625 0.09765625 0 0 Z " fill="#116263" transform="translate(86.72265625,85.90234375)"/>
<path d="M0 0 C1.32 0.99 2.64 1.98 4 3 C4.390625 6.35546875 4.390625 6.35546875 4.25 10.1875 C4.21390625 11.45980469 4.1778125 12.73210937 4.140625 14.04296875 C4.09421875 15.01878906 4.0478125 15.99460937 4 17 C4.680625 16.8453125 5.36125 16.690625 6.0625 16.53125 C10.55544996 15.71869522 15.07242016 15.55597465 19.625 15.28125 C23.29341253 15.04012262 23.29341253 15.04012262 28 14 C28 17.63 28 21.26 28 25 C25.05680098 25 22.16977393 24.93178328 19.234375 24.78125 C17.90019531 24.71357422 17.90019531 24.71357422 16.5390625 24.64453125 C15.15847656 24.57298828 15.15847656 24.57298828 13.75 24.5 C12.81414062 24.45230469 11.87828125 24.40460938 10.9140625 24.35546875 C8.60932885 24.2378803 6.30465811 24.11905983 4 24 C4 27.96 4 31.92 4 36 C2.68 36.66 1.36 37.32 0 38 C0 25.46 0 12.92 0 0 Z " fill="#075C5C" transform="translate(180,84)"/>
<path d="M0 0 C1.39456452 0.00667256 2.78911118 0.01863093 4.18359375 0.03515625 C4.89451172 0.03966797 5.60542969 0.04417969 6.33789062 0.04882812 C8.09899388 0.06064761 9.86005411 0.07858362 11.62109375 0.09765625 C11.62109375 2.07765625 11.62109375 4.05765625 11.62109375 6.09765625 C9.97109375 6.09765625 8.32109375 6.09765625 6.62109375 6.09765625 C6.62109375 17.31765625 6.62109375 28.53765625 6.62109375 40.09765625 C4.64109375 40.09765625 2.66109375 40.09765625 0.62109375 40.09765625 C0.62109375 29.20765625 0.62109375 18.31765625 0.62109375 7.09765625 C-1.02890625 7.09765625 -2.67890625 7.09765625 -4.37890625 7.09765625 C-4.42144981 5.09810879 -4.41971408 3.09723989 -4.37890625 1.09765625 C-3.37890625 0.09765625 -3.37890625 0.09765625 0 0 Z " fill="#0D6060" transform="translate(52.37890625,86.90234375)"/>
<path d="M0 0 C1.98 0 3.96 0 6 0 C6 10.89 6 21.78 6 33 C7.32 33 8.64 33 10 33 C10.04254356 34.99954746 10.04080783 37.00041636 10 39 C9.505 39.495 9.505 39.495 9 40 C6.03 40 3.06 40 0 40 C0 26.8 0 13.6 0 0 Z " fill="#166768" transform="translate(115,85)"/>
<path d="M0 0 C0.66 0 1.32 0 2 0 C2 12.87 2 25.74 2 39 C1.34 39 0.68 39 0 39 C0 37.35 0 35.7 0 34 C-2.31 34 -4.62 34 -7 34 C-7 30.04 -7 26.08 -7 22 C-5.02 22 -3.04 22 -1 22 C-1 20.02 -1 18.04 -1 16 C-2.98 16 -4.96 16 -7 16 C-7 12.7 -7 9.4 -7 6 C-4.69 6 -2.38 6 0 6 C0 4.02 0 2.04 0 0 Z " fill="#DFE8E8" transform="translate(96,86)"/>
<path d="M0 0 C0.66 0.33 1.32 0.66 2 1 C2.049377 5.52065428 2.08570823 10.04115217 2.10986328 14.56201172 C2.11993118 16.10045098 2.13358646 17.63887107 2.15087891 19.17724609 C2.17509317 21.38644133 2.18647491 23.59538395 2.1953125 25.8046875 C2.20563507 26.49432587 2.21595764 27.18396423 2.22659302 27.89450073 C2.22699478 29.59800906 2.12191026 31.30085943 2 33 C1.34 33.66 0.68 34.32 0 35 C0 31.37 0 27.74 0 24 C-1.98 24 -3.96 24 -6 24 C-6 26.64 -6 29.28 -6 32 C-6.99 32 -7.98 32 -9 32 C-9 22.76 -9 13.52 -9 4 C-8.01 4 -7.02 4 -6 4 C-6 6.31 -6 8.62 -6 11 C-4.02 11 -2.04 11 0 11 C0 7.37 0 3.74 0 0 Z " fill="#F9F6E5" transform="translate(160,86)"/>
<path d="M0 0 C4.66666667 0 9.33333333 0 14 0 C14 3.3 14 6.6 14 10 C10.7 10 7.4 10 4 10 C4 9.34 4 8.68 4 8 C4.66 7.67 5.32 7.34 6 7 C5.01 7.33 4.02 7.66 3 8 C3 8.66 3 9.32 3 10 C2.01 10 1.02 10 0 10 C0 6.7 0 3.4 0 0 Z " fill="#6A928F" transform="translate(124,128)"/>
<path d="M0 0 C3.3 0 6.6 0 10 0 C12 6.625 12 6.625 12 10 C11.34 10 10.68 10 10 10 C9.67 8.68 9.34 7.36 9 6 C9 7.32 9 8.64 9 10 C6.03 10 3.06 10 0 10 C0 6.7 0 3.4 0 0 Z " fill="#7DA09E" transform="translate(154,127)"/>
<path d="M0 0 C2.64 0 5.28 0 8 0 C8.05406122 1.93719378 8.09282025 3.87481921 8.125 5.8125 C8.14820312 6.89144531 8.17140625 7.97039062 8.1953125 9.08203125 C8 12 8 12 6 15 C6 13.35 6 11.7 6 10 C4.02 10 2.04 10 0 10 C0 6.7 0 3.4 0 0 Z " fill="#EEF2F3" transform="translate(89,92)"/>
<path d="M0 0 C0.99 0 1.98 0 3 0 C3 9.24 3 18.48 3 28 C2.01 28 1.02 28 0 28 C0 18.76 0 9.52 0 0 Z " fill="#FCF9E6" transform="translate(168,89)"/>
<path d="M0 0 C2.64 0 5.28 0 8 0 C8 3.3 8 6.6 8 10 C7.34 9.34 6.68 8.68 6 8 C5.34 8.66 4.68 9.32 4 10 C2.68 10 1.36 10 0 10 C0 6.7 0 3.4 0 0 Z " fill="#7FA09E" transform="translate(115,129)"/>
<path d="M0 0 C0.99 0.33 1.98 0.66 3 1 C2.34 1 1.68 1 1 1 C1 1.99 1 2.98 1 4 C1.66 4.33 2.32 4.66 3 5 C2.34 5 1.68 5 1 5 C1 5.99 1 6.98 1 8 C1.99 8 2.98 8 4 8 C4 5.36 4 2.72 4 0 C5.32 0 6.64 0 8 0 C8.33 2.97 8.66 5.94 9 9 C6.03 9 3.06 9 0 9 C0 6.03 0 3.06 0 0 Z " fill="#316765" transform="translate(154,128)"/>
<path d="M0 0 C0.66 0 1.32 0 2 0 C2 5.28 2 10.56 2 16 C1.01 16 0.02 16 -1 16 C-1.09688221 10.55306686 -1.12862175 5.36095333 0 0 Z " fill="#D5E2E2" transform="translate(134,91)"/>
<path d="M0 0 C0.99 0 1.98 0 3 0 C3 4.29 3 8.58 3 13 C2.01 13.33 1.02 13.66 0 14 C0 9.38 0 4.76 0 0 Z " fill="#F9FDFD" transform="translate(104,92)"/>
<path d="M0 0 C1.98 0 3.96 0 6 0 C5.01 0.495 5.01 0.495 4 1 C4.185625 1.598125 4.37125 2.19625 4.5625 2.8125 C5 5 5 5 4 8 C4.66 8 5.32 8 6 8 C6 8.66 6 9.32 6 10 C4.68 10 3.36 10 2 10 C-0.4294516 6.3558226 -0.16179575 4.28758728 0 0 Z " fill="#527D7D" transform="translate(166,127)"/>
<path d="M0 0 C1.32 0 2.64 0 4 0 C4 2.97 4 5.94 4 9 C2.68 9 1.36 9 0 9 C0 6.03 0 3.06 0 0 Z " fill="#5D8382" transform="translate(173,127)"/>
<path d="M0 0 C1.32 0 2.64 0 4 0 C4 3.3 4 6.6 4 10 C3.34 9.34 2.68 8.68 2 8 C1.34 8.66 0.68 9.32 0 10 C0 6.7 0 3.4 0 0 Z " fill="#447575" transform="translate(119,129)"/>
<path d="M0 0 C0 3.3 0 6.6 0 10 C-1.32 10 -2.64 10 -4 10 C-4 7.03 -4 4.06 -4 1 C-2 0 -2 0 0 0 Z " fill="#608A88" transform="translate(138,128)"/>
<path d="M0 0 C0 2.97 0 5.94 0 9 C0.99 9.33 1.98 9.66 3 10 C1.68 10 0.36 10 -1 10 C-1 9.34 -1 8.68 -1 8 C-1.66 8 -2.32 8 -3 8 C-3 5.69 -3 3.38 -3 1 C-1 0 -1 0 0 0 Z " fill="#CEDEDE" transform="translate(173,127)"/>
<path d="M0 0 C0.66 0.33 1.32 0.66 2 1 C1.67 3.97 1.34 6.94 1 10 C-1.55192629 8.72403685 -1.99500868 7.62843884 -3 5 C-2 2 -2 2 0 0 Z " fill="#AAC0C1" transform="translate(133,128)"/>
<path d="M0 0 C0.99 0 1.98 0 3 0 C3 2.31 3 4.62 3 7 C2.01 7 1.02 7 0 7 C0 4.69 0 2.38 0 0 Z " fill="#D4E3E3" transform="translate(155,129)"/>
</svg>
